<svg width="40" height="40" viewBox="0 0 40 40" fill="none" xmlns="http://www.w3.org/2000/svg">
<path fill-rule="evenodd" clip-rule="evenodd" d="M19.7485 32.2677C25.2726 32.2677 29.7509 27.8072 29.7509 22.3049C29.7509 16.8026 25.2726 12.342 19.7485 12.342C14.2243 12.342 9.74609 16.8026 9.74609 22.3049C9.74609 27.8072 14.2243 32.2677 19.7485 32.2677ZM19.7486 31.0038C24.572 31.0038 28.482 27.1092 28.482 22.3049C28.482 17.5006 24.572 13.606 19.7486 13.606C14.9253 13.606 11.0152 17.5006 11.0152 22.3049C11.0152 27.1092 14.9253 31.0038 19.7486 31.0038Z" fill="#C4C4C4"/>
<path fill-rule="evenodd" clip-rule="evenodd" d="M19.7516 29.7398C23.8741 29.7398 27.216 26.411 27.216 22.3048C27.216 18.1986 23.8741 14.8699 19.7516 14.8699C15.6291 14.8699 12.2871 18.1986 12.2871 22.3048C12.2871 26.411 15.6291 29.7398 19.7516 29.7398ZM19.7504 28.1786C23.0072 28.1786 25.6473 25.5489 25.6473 22.305C25.6473 19.0611 23.0072 16.4314 19.7504 16.4314C16.4936 16.4314 13.8535 19.0611 13.8535 22.305C13.8535 25.5489 16.4936 28.1786 19.7504 28.1786Z" fill="#C4C4C4"/>
<path fill-rule="evenodd" clip-rule="evenodd" d="M31.5 8C32.8807 8 34 6.88071 34 5.5C34 4.11929 32.8807 3 31.5 3C30.1193 3 29 4.11929 29 5.5C29 6.88071 30.1193 8 31.5 8ZM31.5009 6.74976C32.1913 6.74976 32.7509 6.19011 32.7509 5.49976C32.7509 4.8094 32.1913 4.24976 31.5009 4.24976C30.8105 4.24976 30.2509 4.8094 30.2509 5.49976C30.2509 6.19011 30.8105 6.74976 31.5009 6.74976Z" fill="#C4C4C4"/>
<path fill-rule="evenodd" clip-rule="evenodd" d="M25.5 8C26.8807 8 28 6.88071 28 5.5C28 4.11929 26.8807 3 25.5 3C24.1193 3 23 4.11929 23 5.5C23 6.88071 24.1193 8 25.5 8ZM25.4981 6.74963C26.1884 6.74963 26.7481 6.18999 26.7481 5.49963C26.7481 4.80928 26.1884 4.24963 25.4981 4.24963C24.8077 4.24963 24.2481 4.80928 24.2481 5.49963C24.2481 6.18999 24.8077 6.74963 25.4981 6.74963Z" fill="#C4C4C4"/>
<path fill-rule="evenodd" clip-rule="evenodd" d="M19.5 8C20.8807 8 22 6.88071 22 5.5C22 4.11929 20.8807 3 19.5 3C18.1193 3 17 4.11929 17 5.5C17 6.88071 18.1193 8 19.5 8ZM19.499 6.74972C20.1894 6.74972 20.749 6.19008 20.749 5.49972C20.749 4.80937 20.1894 4.24972 19.499 4.24972C18.8086 4.24972 18.249 4.80937 18.249 5.49972C18.249 6.19008 18.8086 6.74972 19.499 6.74972Z" fill="#C4C4C4"/>
<path fill-rule="evenodd" clip-rule="evenodd" d="M7 0C5.34315 0 4 1.34315 4 3V37C4 38.6569 5.34315 40 7 40H33C34.6569 40 36 38.6569 36 37V3C36 1.34315 34.6569 0 33 0H7ZM6.99912 1.00009C5.89455 1.00009 4.99912 1.89552 4.99912 3.00009V37.0001C4.99912 38.1047 5.89455 39.0001 6.99912 39.0001H32.9991C34.1037 39.0001 34.9991 38.1047 34.9991 37.0001V36H5V35H34.9991V10H5V9H34.9991V3.00009C34.9991 1.89552 34.1037 1.00009 32.9991 1.00009H6.99912Z" fill="#C4C4C4"/>
<path fill-rule="evenodd" clip-rule="evenodd" d="M7 3C6.44772 3 6 3.44771 6 4V6.75837C6 7.31066 6.44771 7.75837 7 7.75837H14.032C14.5843 7.75837 15.032 7.31066 15.032 6.75837V4C15.032 3.44772 14.5843 3 14.032 3H7ZM14 4H7V7H14V4Z" fill="#C4C4C4"/>
</svg>
