<svg width="40" height="40" fill="none" xmlns="http://www.w3.org/2000/svg"><path fill="#C4C4C4" d="M0 22h40v1H0z"/><path fill-rule="evenodd" clip-rule="evenodd" d="M26 30H14v-7h1v6h10v-6h1v7z" fill="#C4C4C4"/><path fill-rule="evenodd" clip-rule="evenodd" d="M3 23H2v5a9 9 0 009 9h18a9 9 0 009-9v-5h-1v5a8 8 0 01-8 8H11a8 8 0 01-8-8v-5z" fill="#C4C4C4"/><path fill="#C4C4C4" d="M11 37h2v3h-2zm16 0h2v3h-2z"/><path fill-rule="evenodd" clip-rule="evenodd" d="M31 0a7 7 0 00-7 7v1h1V7a6 6 0 0112 0v1h1V7a7 7 0 00-7-7z" fill="#C4C4C4"/><path fill="#C4C4C4" d="M22 8h5v1h-5zm15 0h1v14h-1z"/></svg>