<svg width="40" height="40" fill="none" xmlns="http://www.w3.org/2000/svg"><path fill-rule="evenodd" clip-rule="evenodd" d="M3.59 11a2 2 0 012-2h28.82a2 2 0 012 2v7.11h-5.47v-3.5a2 2 0 00-2-2h-5.06a2 2 0 00-2 2v3.5h-3.761v-3.5a2 2 0 00-2-2h-5.06a2 2 0 00-2 2v3.5H3.59V11z" fill="#C4C4C4"/><path fill="#C4C4C4" d="M10.941 14.5h5.299v3.609h-5.299zm12.821 0h5.299v3.609h-5.299zM0 23a3 3 0 013-3h34a3 3 0 013 3v4.219H0V23zm0 4.219h1.71v2.926a.855.855 0 01-1.71 0V27.22zm38.29 0h1.709v2.926a.855.855 0 01-1.71 0V27.22z"/></svg>