<svg width="40" height="40" fill="none" xmlns="http://www.w3.org/2000/svg"><path fill-rule="evenodd" clip-rule="evenodd" d="M0 14c0 4.986 3.466 9.119 8 9.876V40h24V23.876c4.534-.757 8-4.89 8-9.876 0-5.523-4.253-10-9.5-10a9.16 9.16 0 00-.677.025A13.955 13.955 0 0020 0a13.955 13.955 0 00-9.823 4.025A9.16 9.16 0 009.5 4C4.253 4 0 8.477 0 14zm1 0c0 4.793 3.538 8.71 8 8.985V39h22V22.985c4.462-.274 8-4.192 8-8.985 0-4.97-3.806-9-8.5-9-.357 0-.709.023-1.054.069A12.963 12.963 0 0020 1c-3.72 0-7.076 1.563-9.446 4.069A8.115 8.115 0 009.5 5C4.806 5 1 9.03 1 14z" fill="#C4C4C4"/><path fill="#C4C4C4" d="M9 34h22v1H9zm3 0h3v-7h-3zm13 0h3v-7h-3zm-7 0h4V24h-4z"/></svg>