<svg width="40" height="40" fill="none" xmlns="http://www.w3.org/2000/svg"><path fill-rule="evenodd" clip-rule="evenodd" d="M19.748 32.268c5.525 0 10.003-4.46 10.003-9.963 0-5.502-4.478-9.963-10.003-9.963-5.524 0-10.002 4.46-10.002 9.963 0 5.502 4.478 9.963 10.002 9.963zm0-1.264c4.824 0 8.734-3.895 8.734-8.7 0-4.803-3.91-8.698-8.733-8.698-4.824 0-8.734 3.895-8.734 8.699s3.91 8.699 8.734 8.699z" fill="#C4C4C4"/><path fill-rule="evenodd" clip-rule="evenodd" d="M19.752 29.74c4.122 0 7.464-3.329 7.464-7.435s-3.342-7.435-7.464-7.435c-4.123 0-7.465 3.329-7.465 7.435s3.342 7.435 7.465 7.435zm-.002-1.561c3.257 0 5.897-2.63 5.897-5.874 0-3.244-2.64-5.874-5.897-5.874-3.256 0-5.896 2.63-5.896 5.874 0 3.244 2.64 5.874 5.896 5.874zM31.5 8a2.5 2.5 0 100-5 2.5 2.5 0 000 5zm0-1.25a1.25 1.25 0 100-2.5 1.25 1.25 0 000 2.5zM25.5 8a2.5 2.5 0 100-5 2.5 2.5 0 000 5zm-.002-1.25a1.25 1.25 0 100-2.5 1.25 1.25 0 000 2.5zM19.5 8a2.5 2.5 0 100-5 2.5 2.5 0 000 5zm-.001-1.25a1.25 1.25 0 100-2.5 1.25 1.25 0 000 2.5z" fill="#C4C4C4"/><path fill-rule="evenodd" clip-rule="evenodd" d="M7 0a3 3 0 00-3 3v34a3 3 0 003 3h26a3 3 0 003-3V3a3 3 0 00-3-3H7zm0 1a2 2 0 00-2 2v34a2 2 0 002 2h26a2 2 0 002-2v-1H5v-1h30V10H5V9h30V3a2 2 0 00-2-2H7z" fill="#C4C4C4"/><path fill-rule="evenodd" clip-rule="evenodd" d="M7 3a1 1 0 00-1 1v2.758a1 1 0 001 1h7.032a1 1 0 001-1V4a1 1 0 00-1-1H7zm7 1H7v3h7V4z" fill="#C4C4C4"/></svg>