<svg width="122" height="40" viewBox="0 0 122 40" fill="none" xmlns="http://www.w3.org/2000/svg">
<path fill-rule="evenodd" clip-rule="evenodd" d="M5 0C2.23858 0 0 2.23858 0 5V35C0 37.7614 2.23858 40 5.00001 40H116.86C119.622 40 121.86 37.7614 121.86 35V5C121.86 2.23858 119.622 0 116.86 0H5ZM32.9663 26.3954C30.2333 25.8721 25.9891 19.593 32.2686 14.8256C32.2686 14.8256 29.4191 9.47675 21.3384 13.4302C12.9656 9.24419 9.42884 15.6785 9.12836 19.593C8.76195 24.3605 11.1883 30.9887 15.118 33.8954C16.2659 34.7443 18.0945 34.1118 19.622 33.5833C20.5195 33.2729 21.3131 32.9983 21.8035 33.0814C22.1814 33.0814 22.7489 33.2737 23.4128 33.4986L23.4128 33.4986C24.8929 34 26.8518 34.6637 28.2565 33.7209C29.6519 33.0814 32.7333 28.5465 32.9663 26.3954ZM25.4081 9.41862C24.8267 10.1163 23.315 11.6861 21.0476 11.4535C21.0476 5.69769 26.2974 4.8256 27.036 4.8256C26.8034 7.67443 25.9895 8.72095 25.4081 9.41862ZM46.8221 18.7209H48.6662L52.3413 29.7946H50.4518L49.7051 27.5136H45.8092L45.03 29.7946H43.1405L46.8221 18.7209ZM47.7572 21.6568L46.4845 25.4585H49.0233L47.7572 21.6568ZM55.3217 21.6041V22.5075C55.642 22.1361 55.9883 21.8576 56.3606 21.6719C56.7329 21.4862 57.1311 21.3934 57.5554 21.3934C58.4774 21.3934 59.2609 21.7974 59.9059 22.6054C60.5509 23.4134 60.8734 24.4497 60.8734 25.7144C60.8734 26.9339 60.5401 27.9552 59.8734 28.7783C59.2068 29.5963 58.4168 30.0054 57.5034 30.0054C57.0965 30.0054 56.7177 29.9225 56.3671 29.7569C56.0165 29.5863 55.668 29.3103 55.3217 28.9289V32.7907H53.5621V21.6041H55.3217ZM57.1852 23.2904C56.6268 23.2904 56.1637 23.5112 55.7957 23.9529C55.4278 24.3945 55.2438 24.9717 55.2438 25.6843C55.2438 26.412 55.4278 27.0017 55.7957 27.4534C56.1637 27.9 56.6268 28.1234 57.1852 28.1234C57.7263 28.1234 58.1809 27.895 58.5488 27.4383C58.9211 26.9816 59.1072 26.3995 59.1072 25.6918C59.1072 24.9892 58.9254 24.4146 58.5618 23.9679C58.1982 23.5162 57.7393 23.2904 57.1852 23.2904ZM64.1005 22.5075V21.6041H62.3408V32.7907H64.1005V28.9289C64.4468 29.3103 64.7952 29.5863 65.1459 29.7569C65.4965 29.9225 65.8753 30.0054 66.2822 30.0054C67.1956 30.0054 67.9856 29.5963 68.6522 28.7783C69.3188 27.9552 69.6521 26.9339 69.6521 25.7144C69.6521 24.4497 69.3296 23.4134 68.6847 22.6054C68.0397 21.7974 67.2562 21.3934 66.3341 21.3934C65.9099 21.3934 65.5117 21.4862 65.1394 21.6719C64.7671 21.8576 64.4208 22.1361 64.1005 22.5075ZM64.5745 23.9529C64.9424 23.5112 65.4056 23.2904 65.964 23.2904C66.5181 23.2904 66.977 23.5162 67.3406 23.9679C67.7042 24.4146 67.886 24.9892 67.886 25.6918C67.886 26.3995 67.6999 26.9816 67.3276 27.4383C66.9596 27.895 66.5051 28.1234 65.964 28.1234C65.4056 28.1234 64.9424 27.9 64.5745 27.4534C64.2065 27.0017 64.0226 26.412 64.0226 25.6843C64.0226 24.9717 64.2065 24.3945 64.5745 23.9529ZM46.1333 8.02841C46.5424 7.55988 47.048 7.32561 47.6499 7.32561C48.1277 7.32561 48.5224 7.46227 48.8339 7.73558C49.1454 8.00628 49.3012 8.35769 49.3012 8.78978C49.3012 9.40147 49.0094 9.84007 48.426 10.1056C49.1942 10.3398 49.5784 10.8474 49.5784 11.6283C49.5784 12.1489 49.4068 12.568 49.0636 12.8855C48.7204 13.2031 48.2505 13.3619 47.6539 13.3619C47.2367 13.3619 46.8738 13.2773 46.5649 13.1081C46.2587 12.9363 45.9696 12.637 45.6977 12.2101L46.1491 11.9485C46.4184 12.3389 46.6705 12.5901 46.9054 12.702C47.1404 12.8113 47.3846 12.866 47.638 12.866C48.0076 12.866 48.3218 12.7606 48.5805 12.5498C48.8392 12.3389 48.9685 12.0292 48.9685 11.6205C48.9685 11.4044 48.9237 11.217 48.8339 11.0583C48.7468 10.8969 48.6227 10.7667 48.4617 10.6678C48.3006 10.5689 48.1475 10.5064 48.0023 10.4804C47.8571 10.4544 47.6182 10.4414 47.2856 10.4414H47.1866V9.93768H47.3806C48.2439 9.93768 48.6755 9.59279 48.6755 8.903C48.6755 8.58284 48.5765 8.32905 48.3785 8.14164C48.1832 7.95162 47.935 7.85662 47.6341 7.85662C47.2433 7.85662 46.8764 8.03101 46.5332 8.37981L46.1333 8.02841ZM54.9281 8.96548V13.2135H54.3817V12.4834C54.1494 12.7619 53.888 12.9714 53.5976 13.112C53.3099 13.2526 52.9944 13.3228 52.6512 13.3228C52.0414 13.3228 51.52 13.1055 51.0871 12.6708C50.6568 12.2335 50.4416 11.7025 50.4416 11.0778C50.4416 10.4661 50.6594 9.94289 51.095 9.50819C51.5306 9.0735 52.0546 8.85615 52.667 8.85615C53.0208 8.85615 53.3402 8.93034 53.6253 9.0787C53.9131 9.22707 54.1652 9.44963 54.3817 9.74636V8.96548H54.9281ZM52.7106 9.38325C52.4017 9.38325 52.1166 9.45874 51.8553 9.60971C51.5939 9.75808 51.3854 9.96762 51.2296 10.2383C51.0765 10.509 50.9999 10.7954 50.9999 11.0973C50.9999 11.3966 51.0778 11.683 51.2336 11.9563C51.3893 12.2296 51.5979 12.443 51.8592 12.5966C52.1232 12.7476 52.4057 12.8231 52.7066 12.8231C53.0102 12.8231 53.298 12.7476 53.5699 12.5966C53.8418 12.4456 54.0504 12.2413 54.1956 11.9836C54.3434 11.7259 54.4173 11.4357 54.4173 11.1129C54.4173 10.621 54.2523 10.2097 53.9223 9.87911C53.595 9.54854 53.1911 9.38325 52.7106 9.38325ZM56.7299 13.2135V9.44572H58.3574V8.96548H56.1795V13.2135H56.7299ZM59.1177 8.96548H59.6681V9.74636C59.8872 9.44963 60.1393 9.22707 60.4244 9.0787C60.7095 8.93034 61.0277 8.85615 61.3788 8.85615C61.9912 8.85615 62.5152 9.0735 62.9508 9.50819C63.3864 9.94289 63.6042 10.4661 63.6042 11.0778C63.6042 11.7025 63.3877 12.2335 62.9548 12.6708C62.5245 13.1055 62.0044 13.3228 61.3946 13.3228C61.0514 13.3228 60.7359 13.2526 60.4482 13.112C60.1604 12.9714 59.9004 12.7619 59.6681 12.4834V14.7675H59.1177V8.96548ZM61.3352 9.38325C60.8547 9.38325 60.4495 9.54854 60.1195 9.87911C59.7922 10.2097 59.6285 10.621 59.6285 11.1129C59.6285 11.4357 59.7011 11.7259 59.8463 11.9836C59.9941 12.2413 60.204 12.4456 60.4759 12.5966C60.7505 12.7476 61.0395 12.8231 61.3431 12.8231C61.6414 12.8231 61.9213 12.7476 62.1826 12.5966C62.4466 12.443 62.6565 12.2296 62.8122 11.9563C62.968 11.683 63.0459 11.3966 63.0459 11.0973C63.0459 10.7954 62.968 10.509 62.8122 10.2383C62.6591 9.96762 62.4519 9.75808 62.1905 9.60971C61.9292 9.45874 61.6441 9.38325 61.3352 9.38325ZM64.7684 8.96548H64.1824L65.9524 12.8933L65.1208 14.7675H65.7069L68.2769 8.96548H67.6868L66.2494 12.2374L64.7684 8.96548ZM69.7143 10.7537H70.0034C70.1882 10.7537 70.3571 10.6938 70.5102 10.5741C70.666 10.4544 70.7439 10.2826 70.7439 10.0587C70.7439 9.8687 70.6818 9.70602 70.5577 9.57066C70.4337 9.43271 70.2436 9.36373 69.9875 9.36373C69.6892 9.36373 69.3896 9.47826 69.0886 9.70732L68.7758 9.32859C69.1639 9.00842 69.5757 8.84834 70.0113 8.84834C70.3703 8.84834 70.6713 8.95376 70.9141 9.1646C71.157 9.37544 71.2784 9.64745 71.2784 9.98063C71.2784 10.4231 71.0805 10.7238 70.6845 10.8826C71.2019 11.096 71.4606 11.4695 71.4606 12.0031C71.4606 12.3415 71.3392 12.6474 71.0963 12.9207C70.8561 13.1914 70.4957 13.3267 70.0152 13.3267C69.4265 13.3267 68.9527 13.138 68.5937 12.7606L68.9421 12.3701C69.2087 12.6669 69.5506 12.8153 69.9677 12.8153C70.2476 12.8153 70.4667 12.7411 70.6251 12.5927C70.7861 12.4443 70.8666 12.2491 70.8666 12.007C70.8666 11.7702 70.7861 11.5801 70.6251 11.437C70.464 11.2938 70.274 11.2222 70.0548 11.2222H69.7143V10.7537ZM72.9772 12.1085V8.96548H72.4228V13.2135H72.4902L75.6303 10.0978V13.2135H76.1847V8.96548H76.1412L72.9772 12.1085ZM76.9371 8.96548H79.7724V9.43791H78.6319V13.2135H78.0736V9.43791H76.9371V8.96548ZM81.6018 10.6483H81.0752V8.96548H80.5247V13.2135H81.9582C82.4624 13.2135 82.8386 13.0899 83.0868 12.8426C83.3349 12.5927 83.459 12.2934 83.459 11.9446C83.459 11.6556 83.3732 11.4005 83.2016 11.1793C83.03 10.9554 82.8254 10.811 82.5878 10.7459C82.3502 10.6808 82.0216 10.6483 81.6018 10.6483ZM81.095 12.7528V11.1481H81.5662C81.9569 11.1481 82.2288 11.1767 82.3819 11.234C82.5377 11.2912 82.6552 11.3914 82.7343 11.5346C82.8162 11.6778 82.8571 11.8235 82.8571 11.9719C82.8571 12.4925 82.4822 12.7528 81.7325 12.7528H81.095ZM87.8505 13.2135H86.5992V8.96548H87.8307C88.3006 8.96548 88.6385 9.0722 88.8444 9.28564C89.053 9.49908 89.1573 9.74897 89.1573 10.0353C89.1573 10.4674 88.9645 10.7602 88.5791 10.9138C89.1388 11.109 89.4186 11.4851 89.4186 12.0422C89.4186 12.8231 88.8959 13.2135 87.8505 13.2135ZM87.1575 9.43791V10.7654H87.5179C87.8452 10.7654 88.0591 10.7524 88.1594 10.7264C88.2597 10.7003 88.3534 10.6366 88.4405 10.5351C88.5303 10.4309 88.5752 10.2943 88.5752 10.1251C88.5752 9.94809 88.529 9.79972 88.4366 9.67999C88.3442 9.56025 88.2465 9.48997 88.1435 9.46915C88.0432 9.44833 87.8347 9.43791 87.5179 9.43791H87.1575ZM87.1575 11.2652V12.7528H87.7515C88.0313 12.7528 88.2307 12.7359 88.3494 12.702C88.4709 12.6656 88.5738 12.5888 88.6583 12.4717C88.7454 12.3545 88.789 12.2062 88.789 12.0266C88.789 11.7949 88.7151 11.6101 88.5672 11.4721C88.4194 11.3342 88.224 11.2652 87.9812 11.2652H87.1575ZM80.8367 20.469L79.3037 21.8187C78.7656 21.0713 78.2175 20.6976 77.6596 20.6976C77.3881 20.6976 77.1659 20.7714 76.9931 20.9189C76.8203 21.0615 76.7339 21.2237 76.7339 21.4057C76.7339 21.5876 76.7956 21.7597 76.9191 21.922C77.0869 22.1383 77.593 22.603 78.4372 23.316C79.2272 23.9748 79.7061 24.3903 79.8739 24.5624C80.2936 24.9853 80.5898 25.391 80.7626 25.7794C80.9404 26.1629 81.0292 26.5834 81.0292 27.0406C81.0292 27.9306 80.7207 28.6657 80.1035 29.246C79.4864 29.8262 78.6816 30.1163 77.6893 30.1163C76.9141 30.1163 76.2377 29.927 75.6601 29.5484C75.0874 29.1697 74.5962 28.5748 74.1864 27.7635L75.9267 26.7161C76.45 27.675 77.0524 28.1544 77.7337 28.1544C78.0892 28.1544 78.3879 28.0511 78.6298 27.8446C78.8717 27.6381 78.9927 27.3996 78.9927 27.1292C78.9927 26.8833 78.9013 26.6374 78.7187 26.3916C78.536 26.1457 78.1336 25.7696 77.5115 25.2631C76.3266 24.2994 75.5614 23.5569 75.2158 23.0357C74.8702 22.5096 74.6974 21.9859 74.6974 21.4647C74.6974 20.7124 74.9837 20.0682 75.5564 19.5323C76.1341 18.9914 76.845 18.7209 77.6893 18.7209C78.2324 18.7209 78.7483 18.8463 79.2371 19.0971C79.7308 19.3479 80.264 19.8052 80.8367 20.469ZM83.0436 18.8611H85.0579V21.8187H86.2577V23.552H85.0579V29.8434H83.0436V23.552H82.0068V21.8187H83.0436V18.8611ZM93.2709 22.1801C92.6043 21.8015 91.8909 21.6122 91.1306 21.6122C90.079 21.6122 89.1483 21.976 88.3387 22.7038C87.4154 23.5397 86.9538 24.5846 86.9538 25.8384C86.9538 27.0087 87.3611 28.0044 88.1757 28.8256C88.9953 29.6418 89.9827 30.0499 91.138 30.0499C91.923 30.0499 92.6414 29.8655 93.2931 29.4967C93.9448 29.123 94.4582 28.6067 94.8335 27.9478C95.2136 27.289 95.4037 26.5809 95.4037 25.8237C95.4037 25.0714 95.2161 24.3707 94.8409 23.7216C94.4656 23.0726 93.9423 22.5587 93.2709 22.1801ZM89.5902 24.1642C90.0099 23.7265 90.5332 23.5077 91.1602 23.5077C91.8021 23.5077 92.3279 23.7241 92.7376 24.1568C93.1524 24.5846 93.3597 25.1427 93.3597 25.831C93.3597 26.5194 93.1499 27.0824 92.7302 27.5201C92.3106 27.9577 91.7848 28.1765 91.1528 28.1765C90.5209 28.1765 89.9975 27.9601 89.5828 27.5274C89.173 27.0947 88.9681 26.5293 88.9681 25.831C88.9681 25.1525 89.1755 24.5969 89.5902 24.1642ZM96.5886 21.8187H98.3215V22.8292C98.5091 22.4309 98.7585 22.1285 99.0695 21.922C99.3806 21.7154 99.7212 21.6122 100.091 21.6122C100.353 21.6122 100.627 21.681 100.914 21.8187L100.284 23.552C100.047 23.434 99.8521 23.375 99.699 23.375C99.388 23.375 99.1238 23.5667 98.9066 23.9503C98.6943 24.3338 98.5881 25.0861 98.5881 26.2072L98.5956 26.5981V29.8434H96.5886V21.8187ZM103.498 26.4137H109.993L110 26.0302C110 24.7026 109.603 23.6356 108.808 22.8292C108.013 22.0178 106.981 21.6122 105.712 21.6122C104.518 21.6122 103.523 22.0178 102.728 22.8292C101.938 23.6356 101.543 24.6509 101.543 25.8753C101.543 27.0701 101.94 28.0659 102.735 28.8624C103.53 29.6541 104.56 30.0499 105.824 30.0499C106.638 30.0499 107.342 29.9073 107.934 29.6221C108.527 29.332 109.035 28.887 109.46 28.2871L107.756 27.4906C107.213 28.0167 106.564 28.2798 105.809 28.2798C105.177 28.2798 104.656 28.1126 104.246 27.7782C103.841 27.4389 103.592 26.9841 103.498 26.4137ZM107.171 23.7364C107.566 24.0166 107.83 24.3805 107.964 24.828H103.587C103.814 24.3313 104.061 23.9847 104.328 23.788C104.752 23.4733 105.246 23.316 105.809 23.316C106.327 23.316 106.781 23.4561 107.171 23.7364Z" fill="#999999"/>
</svg>
