<svg width="122" height="40" fill="none" xmlns="http://www.w3.org/2000/svg"><path fill-rule="evenodd" clip-rule="evenodd" d="M5 0a5 5 0 00-5 5v30a5 5 0 005 5h111.86a5 5 0 005-5V5a5 5 0 00-5-5H5zm27.966 26.395c-2.733-.523-6.977-6.802-.697-11.57 0 0-2.85-5.348-10.93-1.395-8.373-4.186-11.91 2.248-12.21 6.163-.367 4.767 2.06 11.396 5.989 14.302 1.148.85 2.976.217 4.504-.312.898-.31 1.691-.585 2.181-.502.378 0 .946.193 1.61.418 1.48.501 3.439 1.165 4.843.222 1.396-.64 4.477-5.174 4.71-7.326zM25.408 9.42c-.581.697-2.093 2.267-4.36 2.034 0-5.755 5.25-6.627 5.988-6.627-.233 2.848-1.047 3.895-1.628 4.593zm21.414 9.302h1.844l3.675 11.074h-1.89l-.746-2.281H45.81l-.779 2.28h-1.89l3.682-11.073zm.935 2.936l-1.273 3.802h2.54l-1.267-3.802zm7.565-.053v.904a3.37 3.37 0 011.039-.836 2.64 2.64 0 011.194-.279c.922 0 1.706.404 2.35 1.212.646.808.968 1.845.968 3.11 0 1.219-.333 2.24-1 3.063-.666.818-1.456 1.227-2.37 1.227a2.62 2.62 0 01-1.136-.248c-.35-.17-.699-.447-1.045-.828v3.862h-1.76V21.604h1.76zm1.863 1.686c-.558 0-1.021.221-1.39.663-.367.442-.551 1.019-.551 1.731 0 .728.184 1.318.552 1.77.368.446.83.67 1.39.67.54 0 .995-.229 1.363-.686.372-.456.558-1.038.558-1.746 0-.703-.182-1.277-.545-1.724-.364-.452-.823-.678-1.377-.678zm6.915-.782v-.904h-1.76v11.187h1.76V28.93c.347.381.695.657 1.046.828.35.165.73.248 1.136.248.914 0 1.704-.409 2.37-1.227.667-.823 1-1.844 1-3.064 0-1.264-.322-2.3-.967-3.109-.645-.808-1.429-1.212-2.35-1.212a2.64 2.64 0 00-1.196.279 3.37 3.37 0 00-1.038.835zm.475 1.445c.367-.442.83-.663 1.389-.663.554 0 1.013.226 1.377.678.363.447.545 1.021.545 1.724 0 .707-.186 1.29-.558 1.746-.368.457-.823.685-1.364.685-.558 0-1.022-.223-1.39-.67-.367-.451-.551-1.041-.551-1.769 0-.712.184-1.29.552-1.731zM46.133 8.028c.41-.468.915-.702 1.517-.702.478 0 .872.136 1.184.41.311.27.467.622.467 1.054 0 .611-.292 1.05-.875 1.316.768.234 1.152.741 1.152 1.522 0 .52-.171.94-.514 1.258-.344.317-.813.476-1.41.476-.417 0-.78-.085-1.09-.254-.305-.172-.594-.471-.866-.898l.451-.262c.27.39.521.642.756.754.235.11.48.164.733.164.37 0 .684-.105.943-.316.258-.211.387-.52.387-.93 0-.216-.044-.403-.134-.562a1.022 1.022 0 00-.372-.39 1.34 1.34 0 00-.46-.188 4.58 4.58 0 00-.716-.039h-.1v-.503h.195c.863 0 1.294-.345 1.294-1.035 0-.32-.098-.574-.296-.761a1.024 1.024 0 00-.745-.285c-.39 0-.758.174-1.1.523l-.4-.352zm8.795.937v4.248h-.546v-.73a2.364 2.364 0 01-.784.629c-.288.14-.604.21-.947.21-.61 0-1.131-.216-1.564-.651a2.187 2.187 0 01-.645-1.593c0-.612.217-1.135.653-1.57a2.15 2.15 0 011.572-.652c.354 0 .673.074.958.223.288.148.54.37.757.667v-.78h.546zm-2.217.418a1.68 1.68 0 00-.856.227c-.261.148-.47.358-.625.628a1.71 1.71 0 00.004 1.718 1.68 1.68 0 001.473.867c.303 0 .591-.075.863-.226.272-.151.48-.356.626-.613.147-.258.221-.548.221-.871 0-.492-.165-.903-.495-1.234a1.638 1.638 0 00-1.211-.496zm4.019 3.83V9.447h1.627v-.48H56.18v4.248h.55zm2.388-4.248h.55v.781c.22-.296.471-.519.756-.667.285-.149.604-.223.955-.223.612 0 1.136.217 1.572.652.435.435.653.958.653 1.57a2.18 2.18 0 01-.65 1.593c-.43.434-.95.652-1.56.652a2.12 2.12 0 01-.946-.211 2.377 2.377 0 01-.78-.629v2.284h-.55V8.966zm2.217.418c-.48 0-.886.166-1.215.496-.328.33-.491.742-.491 1.234 0 .323.072.613.217.87.148.258.358.463.63.614.275.15.563.226.867.226.298 0 .578-.075.84-.226.264-.154.474-.367.63-.64a1.696 1.696 0 000-1.718 1.68 1.68 0 00-1.477-.855zm3.433-.418h-.586l1.77 3.928-.831 1.874h.586l2.57-5.802h-.59l-1.438 3.272-1.48-3.272zm4.946 1.789h.29c.184 0 .353-.06.506-.18.156-.12.234-.291.234-.515a.697.697 0 00-.186-.488c-.124-.138-.314-.207-.57-.207-.299 0-.598.114-.9.343l-.312-.378c.388-.32.8-.48 1.235-.48.36 0 .66.105.903.316.243.21.364.482.364.816 0 .442-.198.743-.594.902.518.213.777.587.777 1.12 0 .338-.122.644-.365.918-.24.27-.6.406-1.08.406-.59 0-1.063-.189-1.422-.566l.348-.39a1.32 1.32 0 001.026.444c.28 0 .499-.074.657-.222a.759.759 0 00.242-.586.725.725 0 00-.242-.57.83.83 0 00-.57-.215h-.34v-.468zm3.263 1.354V8.965h-.554v4.248h.067l3.14-3.115v3.115h.555V8.965h-.044l-3.164 3.143zm3.96-3.143h2.835v.473h-1.14v3.775h-.558V9.438h-1.137v-.473zm4.665 1.683h-.527V8.965h-.55v4.248h1.433c.504 0 .88-.123 1.129-.37.248-.25.372-.55.372-.898 0-.29-.086-.545-.257-.766a1.152 1.152 0 00-.614-.433c-.238-.065-.566-.098-.986-.098zm-.507 2.105v-1.605h.471c.39 0 .663.029.816.086a.642.642 0 01.352.3.871.871 0 01.123.438c0 .52-.375.78-1.124.78h-.638zm6.755.46H86.6V8.965h1.23c.47 0 .808.107 1.014.32.209.214.313.464.313.75 0 .432-.192.725-.578.879.56.195.84.571.84 1.128 0 .781-.523 1.171-1.569 1.171zm-.692-3.775v1.327h.36c.327 0 .541-.013.641-.039a.57.57 0 00.281-.19.606.606 0 00.135-.41.707.707 0 00-.138-.446c-.093-.12-.19-.19-.293-.21-.1-.022-.31-.032-.626-.032h-.36zm0 1.827v1.488h.593c.28 0 .48-.017.598-.051a.586.586 0 00.31-.23.726.726 0 00.13-.445.722.722 0 00-.222-.555c-.148-.138-.343-.207-.586-.207h-.823zm-6.321 9.204l-1.533 1.35c-.538-.748-1.087-1.121-1.644-1.121-.272 0-.494.073-.667.22-.173.143-.26.306-.26.488s.063.354.186.516c.168.216.674.681 1.518 1.394.79.659 1.27 1.074 1.437 1.246.42.423.716.829.889 1.217.177.384.266.804.266 1.262 0 .89-.308 1.625-.925 2.205-.618.58-1.422.87-2.415.87-.775 0-1.451-.189-2.029-.568-.573-.378-1.064-.973-1.474-1.784l1.74-1.048c.524.959 1.126 1.438 1.808 1.438.355 0 .654-.103.896-.31.242-.206.363-.444.363-.715 0-.246-.092-.492-.274-.737-.183-.246-.585-.622-1.207-1.129-1.185-.964-1.95-1.706-2.296-2.227-.346-.526-.519-1.05-.519-1.571 0-.753.287-1.397.86-1.933.577-.54 1.288-.811 2.132-.811.543 0 1.06.125 1.548.376.494.25 1.027.708 1.6 1.372zm2.207-1.608h2.014v2.958h1.2v1.733h-1.2v6.291h-2.014v-6.291h-1.037v-1.733h1.037V18.86zm10.227 3.32a4.264 4.264 0 00-2.14-.569c-1.052 0-1.983.364-2.792 1.092-.924.836-1.385 1.88-1.385 3.134 0 1.17.407 2.166 1.222 2.988.82.816 1.807 1.224 2.962 1.224a4.3 4.3 0 002.155-.553 4.08 4.08 0 001.54-1.55 4.18 4.18 0 00.57-2.123 4.13 4.13 0 00-.562-2.102 4.105 4.105 0 00-1.57-1.542zm-3.68 1.983c.419-.438.942-.656 1.57-.656.641 0 1.167.216 1.577.649.414.428.622.986.622 1.674s-.21 1.251-.63 1.69c-.42.437-.945.655-1.577.655s-1.156-.216-1.57-.649c-.41-.432-.615-.998-.615-1.696 0-.678.207-1.234.622-1.667zm6.998-2.345h1.733v1.01c.187-.398.436-.7.748-.907.31-.207.651-.31 1.021-.31.262 0 .536.069.823.207l-.63 1.733c-.237-.118-.432-.177-.585-.177-.311 0-.575.192-.792.575-.213.384-.319 1.136-.319 2.257l.008.391v3.245h-2.007V21.82zm6.909 4.595h6.495l.007-.384c0-1.327-.397-2.394-1.192-3.2-.795-.812-1.827-1.218-3.096-1.218-1.194 0-2.189.406-2.984 1.217-.79.807-1.185 1.822-1.185 3.046 0 1.195.397 2.19 1.192 2.987.795.792 1.825 1.188 3.089 1.188.814 0 1.518-.143 2.11-.428.593-.29 1.101-.735 1.526-1.335l-1.704-.796a2.7 2.7 0 01-1.947.789c-.632 0-1.153-.167-1.563-.502-.405-.34-.654-.794-.748-1.364zm3.673-2.678c.395.28.659.645.793 1.092h-4.377c.227-.497.474-.843.741-1.04a2.418 2.418 0 011.481-.472c.518 0 .972.14 1.362.42z" fill="#999"/></svg>