<svg width="144" height="40" fill="none" xmlns="http://www.w3.org/2000/svg"><path fill-rule="evenodd" clip-rule="evenodd" d="M5 0a5 5 0 00-5 5v30a5 5 0 005 5h133.125a5 5 0 005-5V5a5 5 0 00-5-5H5zm30.188 19.71c0-.815-1.563-1.629-1.563-1.629L14.188 7.791s-1.79-.997-2.625-.465c-.726.462-.688 2.093-.688 2.093V30.29s0 1.587.625 1.86c1.063.465 2.75-.581 2.75-.581l19.563-10.29s1.375-.64 1.375-1.57zm21.02-11.885c-.579-.643-1.309-.965-2.19-.965-.885 0-1.618.324-2.197.97a3.007 3.007 0 00-.79 2.078c0 .805.277 1.51.832 2.114.559.6 1.277.901 2.154.901.875 0 1.59-.3 2.144-.9.559-.605.838-1.31.838-2.115 0-.802-.263-1.497-.79-2.083zm-3.765.445c.439-.456.964-.684 1.575-.684.607 0 1.13.228 1.57.684a2.29 2.29 0 01.663 1.654c0 .416-.1.805-.3 1.165-.2.36-.47.64-.812.838-.34.194-.714.291-1.122.291-.407 0-.78-.097-1.122-.291a2.158 2.158 0 01-.81-.838c-.2-.36-.3-.749-.3-1.165 0-.647.219-1.198.658-1.654zm-5.41-1.261l-2.213 5.135h-.695v1.399h.727v-.768h4.74v.736h.712v-1.367h-.69l-2.197-5.135h-.384zm-1.496 5.135l1.675-3.99 1.606 3.99h-3.281zm18.4-3.937l-.585.365c-.506-.675-1.196-1.012-2.07-1.012-.7 0-1.28.226-1.744.678a2.224 2.224 0 00-.69 1.648c0 .42.105.817.316 1.188.214.37.506.658.874.863a2.55 2.55 0 001.249.308c.843 0 1.53-.338 2.065-1.012l.584.386a2.777 2.777 0 01-1.106.965c-.46.226-.985.339-1.575.339-.906 0-1.657-.29-2.254-.87a2.836 2.836 0 01-.896-2.114 3.035 3.035 0 011.57-2.676 3.342 3.342 0 011.638-.403c.38 0 .745.059 1.096.175.355.117.655.269.9.456.246.187.455.426.627.716zm4.55-1.198h-3.771v.641h1.512v5.125h.743V7.65h1.517v-.64zm.385 0h.78l1.97 4.44 1.912-4.44h.785L70.9 14.884h-.78l1.107-2.544-2.355-5.331zm11.21 0h-4.81v5.766h.738V7.708h3.334v5.067h.738V7.009zm5.72 2.989h-3.329v2.777h-.743V7.009h.743v2.29h3.33v-2.29h.737v5.766h-.738V9.998zm7.29-2.173c-.579-.643-1.31-.965-2.19-.965-.886 0-1.618.324-2.197.97a3.007 3.007 0 00-.79 2.078c0 .805.277 1.51.832 2.114.558.6 1.276.901 2.154.901.875 0 1.59-.3 2.144-.9.558-.605.838-1.31.838-2.115 0-.802-.264-1.497-.79-2.083zm-3.766.445c.44-.456.964-.684 1.575-.684.608 0 1.131.228 1.57.684a2.29 2.29 0 01.664 1.654c0 .416-.1.805-.3 1.165-.2.36-.471.64-.812.838-.34.194-.715.291-1.122.291a2.23 2.23 0 01-1.122-.291 2.158 2.158 0 01-.811-.838c-.2-.36-.3-.749-.3-1.165 0-.647.22-1.198.658-1.654zm10.588 4.505h-1.665V7.009h1.639c.625 0 1.074.145 1.348.434.278.29.416.63.416 1.018 0 .586-.256.984-.769 1.192.745.265 1.117.776 1.117 1.532 0 1.06-.695 1.59-2.086 1.59zm-.922-5.125v1.802h.48c.435 0 .719-.018.853-.053a.75.75 0 00.374-.26c.119-.141.179-.327.179-.556a.972.972 0 00-.184-.604c-.123-.163-.253-.258-.39-.287-.134-.028-.411-.042-.832-.042h-.48zm0 2.48v2.02h.79c.373 0 .638-.024.796-.07a.786.786 0 00.411-.312 1 1 0 00.173-.604c0-.315-.098-.566-.295-.753-.196-.187-.456-.28-.779-.28h-1.096zM52.55 21.95l1.453-1.43c-.664-.714-1.343-1.217-2.036-1.51a6.728 6.728 0 00-2.648-.522c-1.804 0-3.27.629-4.396 1.886-.949 1.056-1.423 2.298-1.423 3.726 0 1.041.256 2.012.767 2.912a5.413 5.413 0 002.095 2.083c.885.484 1.89.726 3.016.726 1.052 0 1.97-.222 2.751-.667.782-.445 1.419-1.09 1.91-1.937a5.26 5.26 0 00.738-2.684l-.015-.455h-5.458v1.929h3.142c-.3.635-.695 1.102-1.187 1.4-.487.3-1.087.448-1.8.448-1.096 0-2.018-.362-2.766-1.085-.747-.724-1.12-1.607-1.12-2.648 0-1.008.358-1.863 1.076-2.568.723-.704 1.618-1.056 2.685-1.056 1.224 0 2.296.484 3.216 1.453zm9.801-.021a4.251 4.251 0 00-2.131-.565c-1.047 0-1.974.362-2.78 1.085-.92.832-1.38 1.87-1.38 3.118 0 1.164.406 2.154 1.217 2.97.816.812 1.8 1.218 2.95 1.218.782 0 1.498-.183 2.147-.55a4.06 4.06 0 001.534-1.54c.378-.656.567-1.36.567-2.113 0-.748-.186-1.445-.56-2.09a4.085 4.085 0 00-1.564-1.534zm-3.665 1.973c.418-.436.939-.653 1.563-.653.64 0 1.163.215 1.571.645.413.426.62.98.62 1.665s-.209 1.245-.627 1.68c-.418.435-.942.653-1.57.653-.63 0-1.151-.215-1.565-.645-.408-.43-.612-.993-.612-1.688 0-.674.207-1.227.62-1.657zm11.21-2.538c.758 0 1.468.188 2.132.564.669.377 1.19.888 1.563 1.534.374.645.561 1.342.561 2.09 0 .753-.19 1.457-.568 2.113a4.06 4.06 0 01-1.534 1.54 4.286 4.286 0 01-2.146.55c-1.15 0-2.134-.406-2.95-1.218-.812-.816-1.217-1.806-1.217-2.97 0-1.247.46-2.286 1.379-3.118.806-.723 1.733-1.085 2.78-1.085zm.03 1.885c-.624 0-1.146.217-1.564.653-.413.43-.62.983-.62 1.657 0 .695.205 1.257.613 1.688.413.43.934.645 1.563.645.63 0 1.154-.218 1.572-.653.417-.435.626-.995.626-1.68 0-.684-.206-1.24-.62-1.665-.407-.43-.93-.645-1.57-.645zm13.814-1.68h-2.006v.88c-.413-.386-.826-.662-1.24-.829a3.34 3.34 0 00-1.305-.256 3.53 3.53 0 00-2.551 1.041c-.787.768-1.18 1.785-1.18 3.052 0 1.183.37 2.161 1.113 2.934.743.772 1.652 1.159 2.729 1.159.492 0 .932-.076 1.32-.228a3.36 3.36 0 001.114-.763c0 .646-.069 1.1-.207 1.365-.132.264-.364.479-.693.645-.33.166-.764.25-1.305.25-.423 0-.79-.059-1.1-.176a1.806 1.806 0 01-.759-.506h-2.22c.177.542.45 1.002.819 1.378.368.382.82.67 1.357.866.536.196 1.197.293 1.984.293 1.475 0 2.579-.43 3.311-1.29.546-.636.819-1.629.819-2.979V21.57zm-5.664 2.303c.413-.425.936-.638 1.57-.638.645 0 1.17.208 1.579.624.408.415.612.956.612 1.62 0 .675-.204 1.22-.612 1.636-.403.416-.917.624-1.541.624-.64 0-1.17-.213-1.594-.638-.422-.426-.634-.97-.634-1.636 0-.64.207-1.171.62-1.592zm7.486-5.384h2.013V29.55h-2.013V18.488zm5.413 7.65h6.468l.008-.38c0-1.32-.396-2.382-1.188-3.184-.791-.807-1.819-1.21-3.083-1.21-1.19 0-2.18.403-2.972 1.21-.787.802-1.18 1.812-1.18 3.03 0 1.188.396 2.178 1.188 2.97.791.787 1.816 1.181 3.075 1.181.811 0 1.512-.142 2.102-.425.59-.289 1.097-.731 1.52-1.328l-1.697-.792a2.692 2.692 0 01-1.94.785c-.63 0-1.148-.167-1.556-.5-.403-.337-.651-.789-.745-1.356zm3.658-2.662c.394.279.657.64.79 1.086h-4.36c.227-.494.473-.839.738-1.034.423-.313.915-.47 1.475-.47.517 0 .969.14 1.357.418zm8.895-4.716h2.191c1.185 0 2.038.11 2.559.33.526.215.939.567 1.239 1.056.305.484.457 1.066.457 1.746 0 .753-.199 1.379-.597 1.878-.394.498-.93.846-1.608 1.041-.398.113-1.124.169-2.176.169v4.57h-2.065V18.76zm2.065 4.217h.657c.516 0 .875-.036 1.076-.11a.94.94 0 00.472-.359 1.06 1.06 0 00.177-.616c0-.416-.162-.719-.486-.91-.236-.142-.674-.212-1.313-.212h-.583v2.207zm7.988-4.489h-2.014V29.55h2.014V18.488zm7.759 3.081h2.006v7.98h-2.006v-.843c-.394.372-.79.64-1.188.807a3.346 3.346 0 01-1.283.242c-1.038 0-1.935-.398-2.692-1.196-.757-.802-1.136-1.797-1.136-2.985 0-1.232.366-2.242 1.099-3.03.733-.787 1.623-1.18 2.67-1.18.482 0 .934.09 1.357.271.423.181.814.452 1.173.814v-.88zm-2.117 1.643c-.625 0-1.143.22-1.556.66-.413.436-.62.995-.62 1.68 0 .69.209 1.257.627 1.702.423.445.942.667 1.556.667.634 0 1.161-.217 1.579-.652.417-.44.626-1.015.626-1.724 0-.695-.209-1.257-.626-1.687-.418-.43-.947-.646-1.586-.646zm7.324-1.643h-2.058l3.053 7.387-1.652 3.513h2.08l5.03-10.9h-2.065l-2.301 5.01-2.087-5.01z" fill="#999"/></svg>