<svg width="160" height="33" fill="none" xmlns="http://www.w3.org/2000/svg"><path d="M124.493 14.598v3.825H124V14.11h1.949v.487h-1.456zm2.137-.487h.492v.793c.196-.302.422-.527.677-.678.255-.15.54-.226.854-.226.548 0 1.017.22 1.407.662.39.441.585.972.585 1.593 0 .634-.194 1.173-.581 1.617-.385.441-.851.662-1.397.662a1.72 1.72 0 01-.847-.214 2.207 2.207 0 01-.698-.638V20h-.492v-5.889zm1.984.424c-.43 0-.792.168-1.088.503-.293.336-.439.753-.439 1.253 0 .327.065.622.195.883.132.262.32.47.563.623.246.153.505.23.776.23.267 0 .518-.077.752-.23a1.64 1.64 0 00.563-.65 1.91 1.91 0 00.209-.872c0-.307-.069-.597-.209-.872a1.57 1.57 0 00-.556-.638 1.37 1.37 0 00-.766-.23zm2.548-.424h.525l1.325 3.321 1.287-3.321h.528l-2.3 5.889h-.525l.745-1.902-1.585-3.987zm4.306 0h3.236v4.312h-.496v-3.789h-2.243v3.789h-.497V14.11zm4.345 0h3.236v4.312h-.496v-3.789h-2.243v3.789h-.497V14.11zm8.187 0v4.312h-.489v-.741a2.187 2.187 0 01-.702.638c-.257.142-.54.214-.847.214-.546 0-1.012-.22-1.4-.662-.385-.444-.577-.983-.577-1.617 0-.62.195-1.152.584-1.593.39-.441.859-.662 1.407-.662.317 0 .603.075.858.226.258.15.483.376.677.678v-.793H148zm-1.985.424a1.37 1.37 0 00-.765.23c-.234.15-.421.363-.56.638a1.929 1.929 0 00.003 1.744c.14.277.326.494.56.65.237.153.489.23.759.23.272 0 .529-.077.772-.23a1.52 1.52 0 00.56-.623c.133-.261.199-.556.199-.883 0-.5-.148-.917-.443-1.253a1.385 1.385 0 00-1.085-.503zM124 23.407h.496v1.474l1.769-1.474h.686l-1.938 1.603 2.093 1.9h-.696l-1.759-1.62-.155.126v1.494H124v-3.503zm5.428-.09c.588 0 1.076.195 1.463.586.352.356.528.778.528 1.265 0 .49-.187.918-.56 1.285-.37.365-.847.547-1.431.547-.586 0-1.066-.182-1.439-.547-.37-.367-.556-.796-.556-1.285 0-.485.176-.906.528-1.262.387-.393.876-.59 1.467-.59zm0 .44c-.408 0-.759.14-1.052.416-.293.277-.44.612-.44 1.005 0 .253.067.49.201.708.133.219.314.389.542.509a1.6 1.6 0 00.749.177 1.6 1.6 0 00.749-.177 1.376 1.376 0 00.742-1.217c0-.393-.147-.728-.443-1.005a1.474 1.474 0 00-1.048-.415zm7.063-.35h.141l1.298 3.503h-.514l-.946-2.579L135 26.91h-.092l-1.474-2.579-.942 2.579h-.514l1.305-3.503h.134l1.541 2.74 1.533-2.74zm2.178 0h3.211v3.503h-.492v-3.078h-2.227v3.078h-.492v-3.503zm8.126 0v3.503h-.486v-.602a2.07 2.07 0 01-.696.518 2.014 2.014 0 01-.841.174 1.97 1.97 0 01-1.39-.538 1.74 1.74 0 01-.573-1.313c0-.505.194-.936.58-1.294a1.984 1.984 0 011.397-.538c.314 0 .598.061.851.183.256.123.48.306.672.55v-.643h.486zm-1.97.344a1.58 1.58 0 00-.76.187 1.422 1.422 0 00-.556.518 1.34 1.34 0 00-.204.709c0 .247.069.483.208.708.138.226.323.401.555.528a1.646 1.646 0 001.52 0 1.34 1.34 0 00.753-1.223c0-.406-.147-.745-.44-1.018a1.513 1.513 0 00-1.076-.409zm5.8 1.472h-2.223v1.687h-.496v-3.503h.496v1.39h2.223v-1.39h.493v3.503h-.493v-1.687zm2.086-1.816v2.592l2.811-2.592h.039v3.503h-.493v-2.57l-2.789 2.57h-.06v-3.503h.492zm4.44 0v2.592l2.81-2.592H160v3.503h-.492v-2.57l-2.79 2.57h-.06v-3.503h.493zM157.084 22h.464c.08.112.187.195.32.251.134.056.293.084.479.084.187 0 .339-.025.453-.074a.9.9 0 00.328-.261h.45c-.052.193-.184.355-.398.486-.211.129-.49.193-.837.193-.345 0-.626-.063-.844-.19-.218-.128-.357-.291-.415-.489zM124 31h30v2h-30v-2zm7.485-29.26L124 10h3.119l4.366-4.348L135.644 10h3.118l-3.742-4.13 2.079-2.174 4.366 4.565H145l-2.703-2.826v-5h-1.871v3.043L137.099 0l-3.535 4.13-2.079-2.39z" fill="#999"/><path d="M18.835 15.205l-1.889 1.147c-1.633-2.117-3.862-3.175-6.687-3.175-2.257 0-4.134.709-5.631 2.127-1.486 1.419-2.229 3.142-2.229 5.17 0 1.32.34 2.56 1.02 3.724a7.214 7.214 0 002.825 2.71c1.203.643 2.547.964 4.033.964 2.722 0 4.945-1.058 6.669-3.175l1.889 1.213c-.885 1.297-2.076 2.306-3.573 3.026-1.486.71-3.182 1.064-5.088 1.064-2.926 0-5.353-.909-7.282-2.726C.964 25.456 0 23.245 0 20.64a9.31 9.31 0 011.344-4.871 9.476 9.476 0 013.726-3.524c1.577-.843 3.34-1.264 5.292-1.264 1.225 0 2.404.183 3.538.549 1.146.365 2.116.842 2.91 1.43a7.835 7.835 0 012.025 2.244zm23.037-3.757v18.087h-2.348v-3.11c-.998 1.187-2.121 2.079-3.369 2.677-1.236.599-2.592.898-4.066.898-2.62 0-4.86-.925-6.721-2.776-1.849-1.862-2.773-4.123-2.773-6.783 0-2.604.936-4.832 2.807-6.683 1.872-1.85 4.123-2.776 6.755-2.776 1.52 0 2.892.316 4.117.948 1.236.631 2.32 1.579 3.25 2.842v-3.324h2.348zm-9.528 1.778a7.27 7.27 0 00-3.675.964c-1.123.632-2.02 1.524-2.689 2.677a7.267 7.267 0 00-.986 3.657c0 1.275.334 2.494 1.003 3.658a7.303 7.303 0 002.689 2.726 7.267 7.267 0 003.64.964 7.58 7.58 0 003.71-.964c1.168-.643 2.064-1.513 2.688-2.61.635-1.097.953-2.333.953-3.707 0-2.095-.709-3.846-2.127-5.253-1.406-1.408-3.142-2.112-5.206-2.112zm14.887-1.778h2.365v3.125c.828-1.153 1.679-1.995 2.552-2.527 1.203-.71 2.467-1.064 3.794-1.064.896 0 1.747.172 2.553.515.805.344 1.463.804 1.973 1.38.51.566.953 1.38 1.327 2.444.794-1.419 1.787-2.494 2.978-3.225a7.138 7.138 0 013.845-1.114c1.282 0 2.41.316 3.386.948.986.631 1.718 1.513 2.194 2.643.477 1.13.715 2.826.715 5.087v9.875H72.48V19.66c0-1.94-.142-3.27-.425-3.99-.284-.731-.772-1.319-1.464-1.762-.68-.443-1.497-.665-2.45-.665a5.484 5.484 0 00-3.181.997 5.78 5.78 0 00-2.093 2.66c-.442 1.109-.663 2.96-.663 5.553v7.082h-2.365v-9.26c0-2.183-.142-3.663-.426-4.439a3.643 3.643 0 00-1.446-1.878c-.692-.477-1.514-.715-2.467-.715-1.1 0-2.132.327-3.097.98-.952.644-1.661 1.514-2.126 2.61-.454 1.098-.68 2.777-.68 5.038v7.664H47.23V11.448zM80.783 4c.544 0 1.01.188 1.395.565.386.377.579.831.579 1.363 0 .521-.193.97-.579 1.347a1.92 1.92 0 01-1.395.565c-.533 0-.993-.188-1.378-.565a1.818 1.818 0 01-.579-1.347c0-.532.193-.986.579-1.363A1.904 1.904 0 0180.783 4zm-1.191 7.448h2.399v18.087h-2.399V11.448zm7.333 0h2.382v3.241c.953-1.241 2.008-2.166 3.165-2.776a7.865 7.865 0 013.777-.93c1.384 0 2.609.343 3.675 1.03a6.166 6.166 0 012.382 2.776c.51 1.164.765 2.976.765 5.436v9.31h-2.365v-8.628c0-2.084-.09-3.475-.272-4.173-.283-1.197-.816-2.095-1.6-2.693-.782-.61-1.803-.914-3.062-.914-1.44 0-2.733.465-3.879 1.396-1.134.931-1.883 2.084-2.246 3.458-.227.897-.34 2.538-.34 4.92v6.634h-2.382V11.448zM109.026 4c.545 0 1.01.188 1.396.565.385.377.578.831.578 1.363 0 .521-.193.97-.578 1.347a1.926 1.926 0 01-1.396.565c-.533 0-.992-.188-1.378-.565a1.82 1.82 0 01-.578-1.347c0-.532.193-.986.578-1.363A1.904 1.904 0 01109.026 4zm-1.191 7.448h2.399v18.087h-2.399V11.448z" fill="#012C7B"/></svg>