<svg width="160" height="33" viewBox="0 0 160 33" fill="none" xmlns="http://www.w3.org/2000/svg">
<path d="M124.493 14.5984V18.4227H124V14.111H125.949V14.5984H124.493Z" fill="#999999"/>
<path d="M126.63 14.111H127.122V14.9036C127.318 14.6024 127.544 14.3765 127.799 14.2259C128.054 14.0753 128.339 14 128.653 14C129.201 14 129.67 14.2206 130.06 14.6618C130.45 15.103 130.645 15.6341 130.645 16.255C130.645 16.889 130.451 17.428 130.064 17.8719C129.679 18.3131 129.213 18.5337 128.667 18.5337C128.36 18.5337 128.078 18.4624 127.82 18.3197C127.563 18.177 127.33 17.9643 127.122 17.6816V20H126.63V14.111ZM128.614 14.535C128.184 14.535 127.822 14.7028 127.526 15.0383C127.233 15.3738 127.087 15.7913 127.087 16.2906C127.087 16.6182 127.152 16.9128 127.282 17.1744C127.414 17.4359 127.602 17.6433 127.845 17.7966C128.091 17.9498 128.35 18.0264 128.621 18.0264C128.888 18.0264 129.139 17.9498 129.373 17.7966C129.609 17.6407 129.797 17.424 129.936 17.1466C130.076 16.8692 130.145 16.5786 130.145 16.2748C130.145 15.9683 130.076 15.6777 129.936 15.4029C129.799 15.1281 129.614 14.9155 129.38 14.7649C129.146 14.6116 128.891 14.535 128.614 14.535Z" fill="#999999"/>
<path d="M131.162 14.111H131.687L133.012 17.432L134.299 14.111H134.827L132.527 20H132.002L132.747 18.0978L131.162 14.111Z" fill="#999999"/>
<path d="M135.468 14.111H138.704V18.4227H138.208V14.6341H135.965V18.4227H135.468V14.111Z" fill="#999999"/>
<path d="M139.813 14.111H143.049V18.4227H142.553V14.6341H140.31V18.4227H139.813V14.111Z" fill="#999999"/>
<path d="M148 14.111V18.4227H147.511V17.6816C147.303 17.9643 147.069 18.177 146.809 18.3197C146.552 18.4624 146.269 18.5337 145.962 18.5337C145.416 18.5337 144.95 18.3131 144.562 17.8719C144.177 17.428 143.985 16.889 143.985 16.255C143.985 15.6341 144.18 15.103 144.569 14.6618C144.959 14.2206 145.428 14 145.976 14C146.293 14 146.579 14.0753 146.834 14.2259C147.092 14.3765 147.317 14.6024 147.511 14.9036V14.111H148ZM146.015 14.535C145.739 14.535 145.484 14.6116 145.25 14.7649C145.016 14.9155 144.829 15.1281 144.69 15.4029C144.553 15.6777 144.484 15.9683 144.484 16.2748C144.484 16.5786 144.554 16.8692 144.693 17.1466C144.833 17.424 145.019 17.6407 145.253 17.7966C145.49 17.9498 145.742 18.0264 146.012 18.0264C146.284 18.0264 146.541 17.9498 146.784 17.7966C147.028 17.6433 147.214 17.4359 147.344 17.1744C147.477 16.9128 147.543 16.6182 147.543 16.2906C147.543 15.7913 147.395 15.3738 147.1 15.0383C146.807 14.7028 146.445 14.535 146.015 14.535Z" fill="#999999"/>
<path d="M124 23.407H124.496V24.8815L126.265 23.407H126.951L125.013 25.0103L127.106 26.9099H126.41L124.651 25.2904L124.496 25.416V26.9099H124V23.407Z" fill="#999999"/>
<path d="M129.428 23.3168C130.016 23.3168 130.504 23.5121 130.891 23.9028C131.243 24.2591 131.419 24.6808 131.419 25.1681C131.419 25.6574 131.232 26.0856 130.859 26.4527C130.489 26.8176 130.012 27 129.428 27C128.842 27 128.362 26.8176 127.989 26.4527C127.619 26.0856 127.433 25.6574 127.433 25.1681C127.433 24.683 127.609 24.2623 127.961 23.906C128.348 23.5132 128.837 23.3168 129.428 23.3168ZM129.428 23.7579C129.02 23.7579 128.669 23.8963 128.376 24.1732C128.083 24.4501 127.936 24.7849 127.936 25.1777C127.936 25.431 128.003 25.6671 128.137 25.886C128.27 26.105 128.451 26.2745 128.679 26.3947C128.906 26.5128 129.156 26.5718 129.428 26.5718C129.7 26.5718 129.95 26.5128 130.177 26.3947C130.405 26.2745 130.585 26.105 130.719 25.886C130.852 25.6671 130.919 25.431 130.919 25.1777C130.919 24.7849 130.772 24.4501 130.476 24.1732C130.183 23.8963 129.833 23.7579 129.428 23.7579Z" fill="#999999"/>
<path d="M136.491 23.407H136.632L137.93 26.9099H137.416L136.47 24.331L135 26.9099H134.908L133.434 24.331L132.492 26.9099H131.978L133.283 23.407H133.417L134.958 26.1468L136.491 23.407Z" fill="#999999"/>
<path d="M138.669 23.407H141.88V26.9099H141.388V23.8319H139.161V26.9099H138.669V23.407Z" fill="#999999"/>
<path d="M146.795 23.407V26.9099H146.309V26.3078C146.103 26.5375 145.871 26.7102 145.613 26.8261C145.357 26.942 145.077 27 144.772 27C144.23 27 143.767 26.8208 143.382 26.4623C143 26.1017 142.809 25.6639 142.809 25.1487C142.809 24.6443 143.003 24.2129 143.389 23.8545C143.776 23.496 144.242 23.3168 144.786 23.3168C145.1 23.3168 145.384 23.378 145.637 23.5003C145.893 23.6227 146.117 23.8062 146.309 24.0509V23.407H146.795ZM144.825 23.7514C144.55 23.7514 144.297 23.8137 144.065 23.9382C143.833 24.0605 143.647 24.2333 143.509 24.4565C143.373 24.6798 143.305 24.9159 143.305 25.1648C143.305 25.4117 143.374 25.6478 143.513 25.8731C143.651 26.0985 143.836 26.2745 144.068 26.4012C144.303 26.5256 144.554 26.5879 144.821 26.5879C145.091 26.5879 145.346 26.5256 145.588 26.4012C145.83 26.2767 146.015 26.1082 146.144 25.8957C146.275 25.6832 146.341 25.4439 146.341 25.1777C146.341 24.7721 146.194 24.4329 145.901 24.1603C145.61 23.8877 145.252 23.7514 144.825 23.7514Z" fill="#999999"/>
<path d="M150.625 25.2228H148.402V26.9099H147.906V23.407H148.402V24.7978H150.625V23.407H151.118V26.9099H150.625V25.2228Z" fill="#999999"/>
<path d="M152.711 23.407V25.9987L155.522 23.407H155.561V26.9099H155.068V24.3406L152.279 26.9099H152.219V23.407H152.711Z" fill="#999999"/>
<path d="M157.151 23.407V25.9987L159.961 23.407H160V26.9099H159.508V24.3406L156.718 26.9099H156.658V23.407H157.151ZM157.084 22H157.548C157.628 22.1116 157.735 22.1953 157.868 22.2511C158.002 22.3069 158.161 22.3348 158.347 22.3348C158.534 22.3348 158.686 22.3102 158.8 22.2608C158.915 22.2114 159.024 22.1245 159.128 22H159.578C159.526 22.1932 159.394 22.3552 159.18 22.4862C158.969 22.6149 158.69 22.6793 158.343 22.6793C157.998 22.6793 157.717 22.616 157.499 22.4894C157.281 22.3606 157.142 22.1975 157.084 22Z" fill="#999999"/>
<path d="M124 31H154V33H124V31Z" fill="#999999"/>
<path d="M131.485 1.73913L124 10H127.119L131.485 5.65217L135.644 10H138.762L135.02 5.86957L137.099 3.69565L141.465 8.26087H145L142.297 5.43478V0.434783H140.426V3.47826L137.099 0L133.564 4.13043L131.485 1.73913Z" fill="#999999"/>
<path d="M18.8346 15.2046L16.946 16.3517C15.3127 14.2349 13.0838 13.1765 10.2595 13.1765C8.0023 13.1765 6.12508 13.8858 4.62784 15.3043C3.14194 16.7229 2.39899 18.4463 2.39899 20.4744C2.39899 21.7933 2.73927 23.0345 3.41983 24.1982C4.11174 25.3619 5.05319 26.2651 6.24417 26.9079C7.44651 27.5507 8.79062 27.8721 10.2765 27.8721C12.9988 27.8721 15.2219 26.8137 16.946 24.6969L18.8346 25.9105C17.9499 27.2072 16.7589 28.2157 15.2616 28.9361C13.7758 29.6454 12.08 30 10.1744 30C7.24801 30 4.82066 29.0912 2.8924 27.2737C0.964132 25.4561 0 23.2451 0 20.6407C0 18.8896 0.448038 17.266 1.34411 15.7698C2.25153 14.2626 3.49356 13.0878 5.0702 12.2455C6.64684 11.4032 8.41064 10.9821 10.3616 10.9821C11.5866 10.9821 12.7662 11.165 13.9005 11.5307C15.0461 11.8964 16.0159 12.373 16.8099 12.9604C17.6039 13.5477 18.2788 14.2958 18.8346 15.2046Z" fill="#012C7B"/>
<path d="M41.8717 11.4476V29.5345H39.5238V26.4258C38.5256 27.6117 37.4027 28.5038 36.155 29.1023C34.9186 29.7008 33.5631 30 32.0886 30C29.4684 30 27.2282 29.0746 25.368 27.2238C23.5192 25.3619 22.5947 23.101 22.5947 20.4412C22.5947 17.8367 23.5305 15.6091 25.4021 13.7583C27.2736 11.9075 29.5251 10.9821 32.1567 10.9821C33.6766 10.9821 35.049 11.298 36.2741 11.9297C37.5104 12.5614 38.5937 13.509 39.5238 14.7724V11.4476H41.8717ZM32.3438 13.2263C31.0167 13.2263 29.7917 13.5477 28.6688 14.1905C27.5458 14.8223 26.6498 15.7144 25.9805 16.867C25.3227 18.0196 24.9937 19.2387 24.9937 20.5243C24.9937 21.7988 25.3283 23.0179 25.9975 24.1816C26.6668 25.3453 27.5628 26.254 28.6858 26.9079C29.82 27.5507 31.0337 27.8721 32.3268 27.8721C33.6312 27.8721 34.8676 27.5507 36.0359 26.9079C37.2042 26.2651 38.1002 25.3951 38.7241 24.298C39.3593 23.2008 39.6769 21.965 39.6769 20.5908C39.6769 18.4962 38.968 16.7451 37.5501 15.3376C36.1436 13.9301 34.4082 13.2263 32.3438 13.2263Z" fill="#012C7B"/>
<path d="M47.2311 11.4476H49.5961V14.5729C50.4241 13.4203 51.2748 12.578 52.1482 12.046C53.3506 11.3367 54.6153 10.9821 55.9424 10.9821C56.8384 10.9821 57.6891 11.1539 58.4945 11.4974C59.2998 11.841 59.9577 12.3009 60.4681 12.8772C60.9785 13.4425 61.4209 14.257 61.7952 15.321C62.5892 13.9024 63.5817 12.8274 64.7727 12.0959C65.9637 11.3534 67.2454 10.9821 68.6179 10.9821C69.8996 10.9821 71.0282 11.298 72.0037 11.9297C72.9905 12.5614 73.7221 13.4425 74.1985 14.5729C74.6749 15.7033 74.9131 17.399 74.9131 19.6598V29.5345H72.4801V19.6598C72.4801 17.7204 72.3383 16.3905 72.0547 15.6701C71.7711 14.9386 71.2834 14.3512 70.5915 13.9079C69.9109 13.4646 69.0943 13.243 68.1415 13.243C66.9845 13.243 65.924 13.5754 64.9598 14.2404C64.007 14.9054 63.3095 15.792 62.8671 16.9003C62.4247 18.0085 62.2036 19.8593 62.2036 22.4527V29.5345H59.8386V20.2749C59.8386 18.0916 59.6968 16.6121 59.4132 15.8363C59.141 15.0494 58.659 14.4233 57.967 13.9578C57.2751 13.4812 56.4528 13.243 55.5 13.243C54.3998 13.243 53.3676 13.5699 52.4034 14.2238C51.4506 14.8666 50.7417 15.7366 50.2767 16.8338C49.823 17.9309 49.5961 19.61 49.5961 21.8708V29.5345H47.2311V11.4476Z" fill="#012C7B"/>
<path d="M80.783 4C81.3274 4 81.7925 4.18841 82.1781 4.56522C82.5638 4.94203 82.7566 5.39642 82.7566 5.92839C82.7566 6.44928 82.5638 6.89812 82.1781 7.27494C81.7925 7.65175 81.3274 7.84015 80.783 7.84015C80.2498 7.84015 79.7905 7.65175 79.4048 7.27494C79.0192 6.89812 78.8263 6.44928 78.8263 5.92839C78.8263 5.39642 79.0192 4.94203 79.4048 4.56522C79.7905 4.18841 80.2498 4 80.783 4ZM79.592 11.4476H81.991V29.5345H79.592V11.4476Z" fill="#012C7B"/>
<path d="M86.925 11.4476H89.307V14.6893C90.2598 13.448 91.3147 12.5226 92.4716 11.913C93.6286 11.2924 94.8876 10.9821 96.2488 10.9821C97.6326 10.9821 98.8576 11.3257 99.9238 12.0128C101.001 12.6999 101.795 13.6253 102.306 14.789C102.816 15.9527 103.071 17.7647 103.071 20.2251V29.5345H100.706V20.9067C100.706 18.8231 100.616 17.4322 100.434 16.734C100.151 15.5371 99.6176 14.6394 98.8349 14.0409C98.0523 13.4314 97.0314 13.1266 95.7724 13.1266C94.3318 13.1266 93.0388 13.5921 91.8932 14.523C90.7589 15.454 90.0103 16.6066 89.6473 17.9808C89.4204 18.8785 89.307 20.5188 89.307 22.9015V29.5345H86.925V11.4476Z" fill="#012C7B"/>
<path d="M109.026 4C109.571 4 110.036 4.18841 110.422 4.56522C110.807 4.94203 111 5.39642 111 5.92839C111 6.44928 110.807 6.89812 110.422 7.27494C110.036 7.65175 109.571 7.84015 109.026 7.84015C108.493 7.84015 108.034 7.65175 107.648 7.27494C107.263 6.89812 107.07 6.44928 107.07 5.92839C107.07 5.39642 107.263 4.94203 107.648 4.56522C108.034 4.18841 108.493 4 109.026 4ZM107.835 11.4476H110.234V29.5345H107.835V11.4476Z" fill="#012C7B"/>
</svg>
